# xmcd CD database file
#
# Track frame offsets:
#	150
#	23430
#	49320
#	67299
#	87270
#
# Disc length: 1434 seconds
#
# Revision: 0
# Processed by: cddbd v1.5.1PL0 Copyright (c) Steve Scherf et al.
# Submitted via: CDex 1.51
#
DISCID=3d059805
DTITLE=Joy Ellis - Watershed
DYEAR=2005
DGENRE=Jazz
TTITLE0=Spring after Fall
TTITLE1=Watershed
TTITLE2=Over Now
TTITLE3=My Friend
TTITLE4=Think it Over (live track)
EXTD=YEAR: 2005
EXTT0=
EXTT1=
EXTT2=
EXTT3=
EXTT4=
PLAYORDER=
